HIERARCHY
ROOT SpineBase
{
  OFFSET 0.000000 0.000000 0.000000
  CHANNELS 6 Xposition Yposition Zposition Zrotation Xrotation Yrotation
  JOINT SpineMid
  {
    OFFSET -0.000000 30.694685 0.000000
    CHANNELS 3 Zrotation Xrotation Yrotation
    JOINT SpineShoulder
    {
      OFFSET -0.157376 22.676627 -0.894104
      CHANNELS 3 Zrotation Xrotation Yrotation
      JOINT Neck
      {
        OFFSET -0.098549 7.468457 -0.648999
        CHANNELS 3 Zrotation Xrotation Yrotation
        JOINT Head
        {
          OFFSET -1.880368 13.239903 -1.740226
          CHANNELS 3 Zrotation Xrotation Yrotation
          End Site
          {
            OFFSET 0 0 0
          }
        }
      }
      JOINT ShoulderLeft
      {
        OFFSET -16.611336 -5.087465 6.171341
        CHANNELS 3 Zrotation Xrotation Yrotation
        JOINT ElbowLeft
        {
          OFFSET -1.318522 -25.326661 3.117611
          CHANNELS 3 Zrotation Xrotation Yrotation
          JOINT WristLeft
          {
            OFFSET -1.280618 -25.548586 0.201323
            CHANNELS 3 Zrotation Xrotation Yrotation
            JOINT HandLeft
            {
              OFFSET -0.188071 -3.894391 0.822920
              CHANNELS 3 Zrotation Xrotation Yrotation
              JOINT HandTipLeft
              {
                OFFSET 1.013501 -5.928472 -1.571785
                CHANNELS 3 Zrotation Xrotation Yrotation
                End Site
                {
                  OFFSET 0 0 0
                }
              }
              JOINT ThumbLeft
              {
                OFFSET 2.028460 0.027513 -3.724938
                CHANNELS 3 Zrotation Xrotation Yrotation
                End Site
                {
                  OFFSET 0 0 0
                }
              }
            }
          }
        }
      }
      JOINT ShoulderRight
      {
        OFFSET 15.026406 -3.480927 -6.061341
        CHANNELS 3 Zrotation Xrotation Yrotation
        JOINT ElbowRight
        {
          OFFSET 6.526457 -24.831851 0.373615
          CHANNELS 3 Zrotation Xrotation Yrotation
          JOINT WristRight
          {
            OFFSET -0.113618 -22.190643 -5.539336
            CHANNELS 3 Zrotation Xrotation Yrotation
            JOINT HandRight
            {
              OFFSET -2.281773 -6.272320 -0.738126
              CHANNELS 3 Zrotation Xrotation Yrotation
              JOINT HandTipRight
              {
                OFFSET -0.668784 -7.004791 -2.263531
                CHANNELS 3 Zrotation Xrotation Yrotation
                End Site
                {
                  OFFSET 0 0 0
                }
              }
              JOINT ThumbRight
              {
                OFFSET 1.976593 -0.873368 -3.526912
                CHANNELS 3 Zrotation Xrotation Yrotation
                End Site
                {
                  OFFSET 0 0 0
                }
              }
            }
          }
        }
      }
    }
  }
  JOINT HipLeft
  {
    OFFSET -7.345688 0.150721 -1.425955
    CHANNELS 3 Zrotation Xrotation Yrotation
    JOINT KneeLeft
    {
      OFFSET 0.962118 -34.875295 3.935427
      CHANNELS 3 Zrotation Xrotation Yrotation
      JOINT AnkleLeft
      {
        OFFSET 3.343951 -31.613402 6.749098
        CHANNELS 3 Zrotation Xrotation Yrotation
        JOINT FootLeft
        {
          OFFSET -4.155340 -4.165916 -13.157084
          CHANNELS 3 Zrotation Xrotation Yrotation
          End Site
          {
            OFFSET 0 0 0
          }
        }
      }
    }
  }
  JOINT HipRight
  {
    OFFSET 6.196655 0.781173 -6.149141
    CHANNELS 3 Zrotation Xrotation Yrotation
    JOINT KneeRight
    {
      OFFSET 4.946444 -34.674883 1.593714
      CHANNELS 3 Zrotation Xrotation Yrotation
      JOINT AnkleRight
      {
        OFFSET 3.378089 -29.588260 6.822326
        CHANNELS 3 Zrotation Xrotation Yrotation
        JOINT FootRight
        {
          OFFSET -4.327367 -4.180236 -13.133111
          CHANNELS 3 Zrotation Xrotation Yrotation
          End Site
          {
            OFFSET 0 0 0
          }
        }
      }
    }
  }
}
MOTION
Frames: 12
Frame Time: 0.033333
56.555083 70.729791 372.865869 1.946992 -0.228557 13.311256 0.865237 -0.039808 -13.201641 0.321353 0.044507 0.159462 -5.878863 -2.286779 -1.017781 0.000000 0.000000 0.000000 -9.242891 1.728757 -1.016476 24.423635 40.828482 -7.856818 30.713058 9.179082 22.496336 -58.051078 33.560843 -13.363328 0.000000 0.000000 0.000000 0.000000 0.000000 0.000000 -2.747038 -3.413728 -1.158601 1.348257 2.181847 0.388852 1.653223 2.480767 -0.499488 -0.766578 -4.221789 0.373341 0.000000 0.000000 0.000000 0.000000 0.000000 0.000000 -1.842170 0.670494 -13.296592 -0.065078 -0.923800 -0.111950 1.707869 1.340233 -5.541633 0.000000 0.000000 0.000000 -2.329084 1.813891 -13.176972 1.077080 -0.234301 0.067606 1.298849 -0.353239 -5.755859 0.000000 0.000000 0.000000
56.606660 70.741444 373.018189 2.558797 -0.452876 11.688042 0.894126 0.074547 -11.554146 0.377586 -0.012200 0.193378 -6.585433 -2.741539 -1.169708 0.000000 0.000000 0.000000 -9.381892 3.514759 -0.996924 34.010762 44.348769 -12.534485 26.061936 7.794227 24.149712 -61.139042 52.475240 -12.030693 0.000000 0.000000 0.000000 0.000000 0.000000 0.000000 -3.062675 -3.573566 -1.283896 1.454809 2.454381 0.332952 1.839429 4.303533 -1.183449 -0.779138 -7.150948 1.125826 0.000000 0.000000 0.000000 0.000000 0.000000 0.000000 -2.414309 0.961280 -11.657671 -0.000000 0.000000 0.000000 1.940703 0.424238 -6.587237 0.000000 0.000000 0.000000 -3.200488 2.661963 -11.468643 1.007641 -0.288520 -0.035479 1.232595 0.717715 -5.427467 0.000000 0.000000 0.000000
56.862958 70.770576 373.201198 3.265065 -0.680127 9.474568 0.834165 0.219938 -9.314054 0.394147 -0.045032 0.224438 -7.020085 -3.151181 -1.269456 0.000000 0.000000 0.000000 -8.313576 6.867861 -0.940349 38.333698 49.346256 -16.549706 23.010350 3.038089 28.054990 -63.496836 63.755017 -10.105993 0.000000 0.000000 0.000000 0.000000 0.000000 0.000000 -3.292102 -3.831739 -1.420713 1.882930 2.703772 0.175279 1.433574 6.042572 -1.683594 0.268116 -11.505006 1.914958 0.000000 0.000000 0.000000 0.000000 0.000000 0.000000 -3.109227 1.207005 -9.422424 -0.000000 0.000000 0.000000 2.324449 0.437341 -7.839339 0.000000 0.000000 0.000000 -4.098774 3.450422 -9.150598 1.234667 -0.673917 -0.075904 2.648707 -1.374280 -8.258849 0.000000 0.000000 0.000000
57.205880 70.804651 373.384129 4.100341 -0.886973 6.890486 0.682338 0.371734 -6.698373 0.363792 -0.051976 0.253629 -7.552976 -3.572921 -1.381131 0.000000 0.000000 0.000000 -6.912874 10.000365 -0.976704 39.526981 55.876613 -20.897755 18.617789 -3.209476 28.985336 -58.278527 67.562563 -8.901585 0.000000 0.000000 0.000000 0.000000 0.000000 0.000000 -3.495492 -4.123601 -1.552738 2.289392 3.282313 -0.007412 0.659035 7.450993 -2.108346 -1.273308 -13.980147 2.959995 0.000000 0.000000 0.000000 0.000000 0.000000 0.000000 -3.965414 1.369915 -6.811307 -0.237472 -0.887646 -0.146221 3.010311 1.337122 -9.211786 0.000000 0.000000 0.000000 -5.210585 4.225257 -6.438245 1.573817 -1.359040 -0.119907 3.013230 -1.104150 -10.024642 0.000000 0.000000 0.000000
57.783843 70.889605 373.563057 4.774594 -1.053424 4.105906 0.410972 0.495701 -3.889677 0.283190 -0.038117 0.265505 -7.833798 -3.837695 -1.447674 0.000000 0.000000 0.000000 -5.872636 12.436568 -1.076149 36.295788 62.469916 -23.221130 15.233619 2.839530 25.221564 -44.688575 55.112254 -19.132412 0.000000 0.000000 0.000000 0.000000 0.000000 0.000000 -3.417572 -4.609373 -1.696386 2.736565 3.767148 -0.164367 1.093085 10.612133 -3.445297 -3.586368 -17.741558 4.465999 0.000000 0.000000 0.000000 0.000000 0.000000 0.000000 -4.688276 1.388618 -4.005141 -0.602658 -1.338517 -0.276755 3.761983 1.800086 -10.403532 0.000000 0.000000 0.000000 -5.366713 4.608725 -3.558385 1.621275 -1.990455 -0.048140 4.516461 -5.240012 -14.630838 0.000000 0.000000 0.000000
58.671164 70.974934 373.723302 5.258930 -1.173550 1.342952 0.086865 0.569300 -1.110375 0.177040 -0.002375 0.263672 -7.867270 -3.881713 -1.456260 0.000000 0.000000 0.000000 -4.599113 13.394325 -1.127886 28.648779 70.014344 -23.597368 8.242323 8.921041 14.707942 -38.323937 34.831321 -11.940182 0.000000 0.000000 0.000000 0.000000 0.000000 0.000000 -3.431425 -5.066531 -1.819003 3.905940 4.255422 -0.486946 -0.135481 13.321452 -4.267629 -2.806362 -19.580118 5.356378 0.000000 0.000000 0.000000 0.000000 0.000000 0.000000 -6.138638 1.235119 -1.314358 -0.385701 -1.824964 -0.392237 4.894974 2.373869 -11.734065 0.000000 0.000000 0.000000 -4.988689 4.831153 -0.729030 1.890976 -2.857368 0.155942 3.977904 -6.138223 -17.123215 0.000000 0.000000 0.000000
59.480717 71.179812 373.836830 5.588325 -1.210798 -1.367509 -0.146448 0.556646 1.611990 0.102359 0.030370 0.261892 -8.042040 -3.681776 -1.449354 0.000000 0.000000 0.000000 -3.041516 13.369194 -1.129631 11.022082 75.632175 -15.218888 4.068446 22.913850 6.418834 -29.712571 12.907515 -2.597993 0.000000 0.000000 0.000000 0.000000 0.000000 0.000000 -3.210797 -5.395678 -1.890237 4.769714 4.541996 -0.806766 -1.299821 15.591654 -4.912737 -3.298951 -19.314257 5.869201 0.000000 0.000000 0.000000 0.000000 0.000000 0.000000 -7.213493 1.309360 1.340534 -0.391176 -2.757372 -0.561490 5.816403 2.990233 -12.399859 0.000000 0.000000 0.000000 -4.069663 4.992583 2.026381 2.155872 -3.764120 0.466378 4.645858 -12.530122 -23.875054 0.000000 0.000000 0.000000
60.952797 71.261035 373.963205 5.843282 -1.138007 -3.794898 -0.272166 0.469368 4.048078 0.021862 0.067982 0.260992 -9.229030 -3.315720 -1.569798 0.000000 0.000000 0.000000 -3.285000 13.157602 -1.122474 -8.198075 81.470712 -1.040061 -0.853340 29.930533 -2.991008 -20.865424 -1.565783 14.180560 0.000000 0.000000 0.000000 0.000000 0.000000 0.000000 -3.618343 -5.557639 -1.948435 6.101819 4.765248 -1.150787 -1.651977 16.764861 -5.382109 -4.856935 -18.986257 6.110969 0.000000 0.000000 0.000000 0.000000 0.000000 0.000000 -8.730224 1.274148 3.646736 -0.390785 -3.584122 -0.788421 7.415678 3.414969 -13.572978 0.000000 0.000000 0.000000 -2.917782 4.804651 4.444170 2.295203 -4.480317 0.808947 4.362676 -17.591527 -30.486521 0.000000 0.000000 0.000000
62.503192 71.333521 374.061984 5.989097 -1.028442 -5.904159 -0.298108 0.350966 6.162752 -0.047831 0.081316 0.260814 -10.460876 -2.627819 -1.634306 0.000000 0.000000 0.000000 -4.730172 12.543614 -1.091890 -39.883957 82.613758 27.698197 -2.353550 42.909820 -2.555010 -14.864623 -11.454876 22.597292 0.000000 0.000000 0.000000 0.000000 0.000000 0.000000 -4.313627 -5.502271 -1.976431 7.692132 5.027431 -1.538744 -1.028071 15.960361 -5.367793 -7.409290 -16.640877 5.686210 0.000000 0.000000 0.000000 0.000000 0.000000 0.000000 -10.394222 1.106313 5.589253 -0.095230 -4.131523 -0.954227 8.878943 3.589032 -14.405663 0.000000 0.000000 0.000000 -1.636995 4.457427 6.520482 2.548376 -4.982060 1.207929 2.924317 -19.066463 -34.060175 0.000000 0.000000 0.000000
64.774833 71.299143 374.230774 6.038691 -0.888699 -7.473835 -0.179422 0.273612 7.735122 -0.026037 0.078693 0.270855 -12.585926 -2.116821 -1.842860 0.000000 0.000000 0.000000 -8.263910 14.009823 -1.187902 -54.032957 81.238191 42.565816 -4.945711 46.082842 -9.747016 -3.808999 -13.472680 45.285814 0.000000 0.000000 0.000000 0.000000 0.000000 0.000000 -5.242009 -5.307807 -1.978614 9.046666 4.983869 -1.818694 -1.119434 16.205372 -5.547631 -8.079026 -15.229349 5.593724 0.000000 0.000000 0.000000 0.000000 0.000000 0.000000 -12.539535 0.934287 6.919360 0.388835 -4.477540 -1.125121 10.742218 3.489619 -15.147281 0.000000 0.000000 0.000000 -0.763096 3.944832 8.046093 2.840600 -5.193937 1.506700 1.498474 -16.314901 -34.080226 0.000000 0.000000 0.000000
67.361584 71.176977 374.421417 5.991683 -0.792355 -8.581975 -0.166312 0.259510 8.837765 -0.009945 0.081433 0.271171 -15.150527 -1.653957 -2.125579 0.000000 0.000000 0.000000 -11.984869 15.502812 -1.181171 -57.893841 79.678325 48.515010 -6.753640 48.821419 -19.778563 1.221580 -17.211680 58.281050 0.000000 0.000000 0.000000 0.000000 0.000000 0.000000 -6.038437 -5.089861 -1.953102 10.027579 5.000769 -1.957078 -0.216934 16.053875 -5.851273 -8.687346 -14.645635 5.512835 0.000000 0.000000 0.000000 0.000000 0.000000 0.000000 -14.807981 0.732626 7.755155 0.970925 -4.485572 -1.257380 12.752055 3.120980 -15.849261 0.000000 0.000000 0.000000 -0.115392 3.401918 9.106719 2.557482 -5.177448 1.556803 0.438371 -10.167080 -30.767058 0.000000 0.000000 0.000000
69.967522 70.929758 374.624817 5.927401 -0.685250 -9.236054 -0.237180 0.260874 9.481413 0.019565 0.086009 0.268113 -17.434801 -1.377632 -2.405684 0.000000 0.000000 0.000000 -16.897515 19.122271 -0.943851 -44.099295 78.174219 40.812248 -5.212674 56.927970 -17.243458 7.497691 -28.591060 56.877483 0.000000 0.000000 0.000000 0.000000 0.000000 0.000000 -7.075825 -4.955763 -1.953189 10.878782 5.340896 -1.965288 2.558104 15.381077 -6.490205 -9.544343 -14.386443 5.344375 0.000000 0.000000 0.000000 0.000000 0.000000 0.000000 -17.221585 0.407563 8.086975 1.793331 -4.192433 -1.306463 14.774392 2.597971 -16.691058 0.000000 0.000000 0.000000 -0.027289 2.772460 9.709663 2.460675 -5.006975 1.526681 -1.032045 -2.652365 -25.574731 0.000000 0.000000 0.000000
